<svg xmlns="http://www.w3.org/2000/svg" width="400" height="400" fill="none">
  <path fill="#0770DC" fill-rule="evenodd"
    d="M235.438 48.83c.083-24.21 24.725-40.578 47.074-31.269l86.559 36.057a34 34 0 0 1 20.926 31.386v237.712c0 5.523-4.476 10-10 10-5.522 0-10-4.477-10-10V85.004a14 14 0 0 0-8.616-12.924l-86.56-36.056c-9.203-3.834-19.349 2.906-19.383 12.875l-.533 155.154a29.758 29.758 0 0 1 11.001 6.825l37.969 37.151c9.206 9.008 8.674 23.354.198 31.817l10.013 11.835c14.693 17.367 8.517 43.983-12.322 53.106l-11.855 5.19a34.002 34.002 0 0 1-13.635 2.854h-18.161v20.171c0 5.523-4.476 10-10 10-5.522 0-10-4.477-10-10v-20.171h-18.16c-4.693 0-9.335-.972-13.635-2.854l-12.872-5.635c-20.401-8.931-26.85-34.738-13.049-52.217l9.466-11.988c-8.815-8.382-9.737-22.859-.776-32.285l34.425-36.208a29.761 29.761 0 0 1 11.393-7.462l.533-155.351Zm22.675 284.001v-35.257c0-5.523-4.476-10-10-10-5.522 0-10 4.477-10 10v35.257h-18.16c-1.932 0-3.844-.4-5.614-1.175l-12.872-5.635c-8.401-3.678-11.056-14.304-5.373-21.501l13.192-16.708c5.634-7.134 3.256-17.646-4.899-21.663a2.846 2.846 0 0 1-.805-4.516l34.425-36.208a9.765 9.765 0 0 1 13.911-.252l37.969 37.151a2.376 2.376 0 0 1-.612 3.831c-8.242 4.059-10.477 14.781-4.543 21.796l14.085 16.648c6.05 7.151 3.507 18.111-5.074 21.867l-11.854 5.19a14.003 14.003 0 0 1-5.615 1.175h-18.161ZM155.352 68.777c22.432-9.595 47.371 6.862 47.371 31.26v86.299c0 5.523-4.478 10-10 10-5.524 0-10-4.477-10-10v-86.299c0-10.046-10.269-16.823-19.507-12.872l-89.159 38.137a14 14 0 0 0-8.494 12.872v190.132c1.478.709 2.963 1.396 4.459 2.063 15.547 6.944 32.61 11.946 56.156 16.842 5.408 1.125 8.88 6.42 7.755 11.827-1.124 5.407-6.419 8.879-11.827 7.755-24.296-5.053-42.887-10.413-60.24-18.162a203.404 203.404 0 0 1-10.718-5.17 8.957 8.957 0 0 1-.38-.197c-13.218-6.888-26.048-15.36-40.72-26.225-4.44-3.286-5.374-9.549-2.087-13.988 3.286-4.438 9.549-5.372 13.987-2.085 8.521 6.309 16.226 11.654 23.615 16.268v-179.06a34 34 0 0 1 20.629-31.261l89.16-38.136Zm148.153 22.225c5.523 0 10 4.478 10 10v16c0 5.523-4.477 10-10 10s-10-4.477-10-10v-16c0-5.522 4.477-10 10-10Zm-189.913 56c5.523 0 10 4.477 10 10v18.667c0 5.522-4.477 10-10 10s-10-4.478-10-10v-18.667c0-5.523 4.477-10 10-10Zm189.913 0c5.523 0 10 4.477 10 10v18.667c0 5.522-4.477 10-10 10s-10-4.478-10-10v-18.667c0-5.523 4.477-10 10-10Zm-189.913 56c5.523 0 10 4.477 10 10v16c0 5.523-4.477 10-10 10s-10-4.477-10-10v-16c0-5.523 4.477-10 10-10Zm0 54.4c5.523 0 10 4.478 10 10v17.6c0 5.523-4.477 10-10 10s-10-4.477-10-10v-17.6c0-5.522 4.477-10 10-10Z"
    clip-rule="evenodd" />
  <path fill="url(#a)" fill-rule="evenodd"
    d="M235.438 48.83c.083-24.21 24.725-40.578 47.074-31.269l86.559 36.057a34 34 0 0 1 20.926 31.386v237.712c0 5.523-4.476 10-10 10-5.522 0-10-4.477-10-10V85.004a14 14 0 0 0-8.616-12.924l-86.56-36.056c-9.203-3.834-19.349 2.906-19.383 12.875l-.533 155.154a29.758 29.758 0 0 1 11.001 6.825l37.969 37.151c9.206 9.008 8.674 23.354.198 31.817l10.013 11.835c14.693 17.367 8.517 43.983-12.322 53.106l-11.855 5.19a34.002 34.002 0 0 1-13.635 2.854h-18.161v20.171c0 5.523-4.476 10-10 10-5.522 0-10-4.477-10-10v-20.171h-18.16c-4.693 0-9.335-.972-13.635-2.854l-12.872-5.635c-20.401-8.931-26.85-34.738-13.049-52.217l9.466-11.988c-8.815-8.382-9.737-22.859-.776-32.285l34.425-36.208a29.761 29.761 0 0 1 11.393-7.462l.533-155.351Zm22.675 284.001v-35.257c0-5.523-4.476-10-10-10-5.522 0-10 4.477-10 10v35.257h-18.16c-1.932 0-3.844-.4-5.614-1.175l-12.872-5.635c-8.401-3.678-11.056-14.304-5.373-21.501l13.192-16.708c5.634-7.134 3.256-17.646-4.899-21.663a2.846 2.846 0 0 1-.805-4.516l34.425-36.208a9.765 9.765 0 0 1 13.911-.252l37.969 37.151a2.376 2.376 0 0 1-.612 3.831c-8.242 4.059-10.477 14.781-4.543 21.796l14.085 16.648c6.05 7.151 3.507 18.111-5.074 21.867l-11.854 5.19a14.003 14.003 0 0 1-5.615 1.175h-18.161ZM155.352 68.777c22.432-9.595 47.371 6.862 47.371 31.26v86.299c0 5.523-4.478 10-10 10-5.524 0-10-4.477-10-10v-86.299c0-10.046-10.269-16.823-19.507-12.872l-89.159 38.137a14 14 0 0 0-8.494 12.872v190.132c1.478.709 2.963 1.396 4.459 2.063 15.547 6.944 32.61 11.946 56.156 16.842 5.408 1.125 8.88 6.42 7.755 11.827-1.124 5.407-6.419 8.879-11.827 7.755-24.296-5.053-42.887-10.413-60.24-18.162a203.404 203.404 0 0 1-10.718-5.17 8.957 8.957 0 0 1-.38-.197c-13.218-6.888-26.048-15.36-40.72-26.225-4.44-3.286-5.374-9.549-2.087-13.988 3.286-4.438 9.549-5.372 13.987-2.085 8.521 6.309 16.226 11.654 23.615 16.268v-179.06a34 34 0 0 1 20.629-31.261l89.16-38.136Zm148.153 22.225c5.523 0 10 4.478 10 10v16c0 5.523-4.477 10-10 10s-10-4.477-10-10v-16c0-5.522 4.477-10 10-10Zm-189.913 56c5.523 0 10 4.477 10 10v18.667c0 5.522-4.477 10-10 10s-10-4.478-10-10v-18.667c0-5.523 4.477-10 10-10Zm189.913 0c5.523 0 10 4.477 10 10v18.667c0 5.522-4.477 10-10 10s-10-4.478-10-10v-18.667c0-5.523 4.477-10 10-10Zm-189.913 56c5.523 0 10 4.477 10 10v16c0 5.523-4.477 10-10 10s-10-4.477-10-10v-16c0-5.523 4.477-10 10-10Zm0 54.4c5.523 0 10 4.478 10 10v17.6c0 5.523-4.477 10-10 10s-10-4.477-10-10v-17.6c0-5.522 4.477-10 10-10Z"
    clip-rule="evenodd" />
  <defs>
    <linearGradient id="a" x1="-4" x2="390" y1="15" y2="383" gradientUnits="userSpaceOnUse">
      <stop stop-color="#36B6FE" />
      <stop offset="1" stop-color="#36B6FE" stop-opacity="0" />
    </linearGradient>
  </defs>
</svg>
